<svg width="48" height="48" xmlns="http://www.w3.org/2000/svg">&gt;<g fill-opacity=".64"><path fill="#93F4FE" d="M0 0h24v48H0V0z"/><path fill="#FFCF7B" d="M28 0h20v20H28V0z"/></g><path fill="#535FD7" d="M24 20.2c-5.9 0-10.6 4.7-10.6 10.6S18.1 41.4 24 41.4s10.6-4.7 10.6-10.6S29.8 20.2 24 20.2zm5.5 9.5l-2.3 2.2.5 3.1c.1.6-.5 1-1 .7L24 34.3l-2.8 1.5c-.5.3-1.1-.2-1-.7l.5-3.1-2.3-2.2c-.4-.4-.2-1.1.4-1.2l3.2-.5 1.4-2.9c.1-.3.4-.4.6-.4.2 0 .5.1.6.4l1.4 2.9 3.2.5c.5 0 .7.7.3 1.1z"/><path fill="#7C85E1" d="M22 18.5l-4.2-6.9c-.3-.6-1-.9-1.7-.9H9.5c-.8 0-1.2.9-.8 1.5l6.7 9.6c1.8-1.8 4.1-2.9 6.6-3.3zm16.4-7.9h-6.7c-.7 0-1.3.4-1.7.9l-4.2 6.9c2.5.4 4.8 1.5 6.6 3.2l6.7-9.6c.6-.5.1-1.4-.7-1.4z"/></svg>