<svg width="48" height="48" xmlns="http://www.w3.org/2000/svg"><g fill-opacity=".64"><path fill="#93F4FE" d="M0 0h24v48H0V0z"/><path fill="#FFCF7B" d="M28 0h20v20H28V0z"/></g><path fill="#FFF" d="M12.4 12.6h23.8v16H12.4z"/><path fill="#7C85E1" d="M37.9 12.6c0-1.4-1.2-2.6-2.6-2.6H12.7c-1.4 0-2.6 1.2-2.6 2.6v18.2h27.8V12.6zm-3.5 14.8H13.6V13.5h20.8v13.9z"/><path d="M20.5 24.2c.3.3.9.3 1.2 0l.6-.6c.3-.3.3-.9 0-1.2l-1.9-1.9 1.9-1.9c.3-.3.3-.9 0-1.2l-.6-.6c-.3-.3-.9-.3-1.2 0L17.3 20c-.3.3-.3.9 0 1.2l3.2 3zm5.2-.6l.6.6c.3.3.9.3 1.2 0l3.2-3.2c.3-.3.3-.9 0-1.2l-3.2-3.2c-.3-.3-.9-.3-1.2 0l-.6.6c-.3.3-.3.9 0 1.2l1.9 1.9-1.9 1.9c-.3.5-.3 1 0 1.4zm14.8 9H27.3c0 1.1-.8 1.7-1.8 1.7h-3.3c-1 0-1.8-.9-1.8-1.7h-13c-.5 0-.9.4-.9.9v.9c0 1.9 1.6 3.5 3.5 3.5h27.8c1.9 0 3.5-1.6 3.5-3.5v-.9c0-.5-.4-.9-.8-.9z" fill="#535FD7"/></svg>