<svg width="48" height="48" xmlns="http://www.w3.org/2000/svg"><path fill="#535FD7" fill-opacity=".32" d="M0 0h24v48H0V0z"/><path fill="#2FEAFC" fill-opacity=".16" d="M28 0h20v20H28V0z"/><path fill="#7C85E1" d="M43 16.5l-17.5-5.4c-1-.3-2-.3-2.9 0L5 16.5c-1.5.5-1.5 2.4 0 2.9l3 .9c-.7.8-1.1 1.8-1.1 2.9-.6.3-1 1-1 1.7s.4 1.2.9 1.6l-1.6 7.2c-.1.6.3 1.2 1 1.2h3.5c.6 0 1.1-.6 1-1.2L9 26.6c.5-.4.9-.9.9-1.6 0-.7-.4-1.3-1-1.7 0-.9.5-1.8 1.3-2.3l12.3 3.8c.6.2 1.7.4 2.9 0L43 19.4c1.5-.5 1.5-2.4 0-2.9z"/><path fill="#61EFFD" d="M26.1 26.7c-1.8.6-3.3.2-4.1 0l-9.1-2.8-1 7.1c0 2.2 5.4 4 12.1 4s12.1-1.8 12.1-4l-.9-7.1-9.1 2.8z"/></svg>