<svg width="48" height="48" xmlns="http://www.w3.org/2000/svg"><path fill="#535FD7" fill-opacity=".32" d="M12.5 11.9H24V0H0v48h24V27.9H12.5z"/><path fill="#2FEAFC" fill-opacity=".16" d="M48 0H28v11.9h8.3V20H48z"/><path fill="none" d="M28 11.9h-4v16h12.3V20H28z"/><path fill="#7C85E1" d="M37.9 11.9c0-1.4-1.2-2.6-2.6-2.6H12.8c-1.4 0-2.6 1.2-2.6 2.6v18.2H38V11.9zm-3.4 14.8H13.6V12.8h20.8v13.9z"/><path d="M20.5 23.5c.3.3.9.3 1.2 0l.6-.6c.3-.3.3-.9 0-1.2l-1.9-1.9 1.9-1.9c.3-.3.3-.9 0-1.2l-.5-.7c-.3-.3-.9-.3-1.2 0l-3.2 3.2c-.3.3-.3.9 0 1.2l3.1 3.1zm5.2-.6l.6.6c.3.3.9.3 1.2 0l3.2-3.2c.3-.3.3-.9 0-1.2L27.6 16c-.3-.3-.9-.3-1.2 0l-.6.6c-.3.3-.3.9 0 1.2l1.9 1.9-1.9 1.9c-.4.4-.4 1-.1 1.3zm14.8 9H27.3c0 1.1-.8 1.7-1.8 1.7h-3.3c-1 0-1.8-.9-1.8-1.7h-13c-.5 0-.9.4-.9.9v.9c0 1.9 1.6 3.5 3.5 3.5h27.8c1.9 0 3.5-1.6 3.5-3.5v-.9c.1-.5-.3-.9-.8-.9z" fill="#61EFFD"/></svg>