<svg width="48" height="48" xmlns="http://www.w3.org/2000/svg"><path fill="#535FD7" fill-opacity=".32" d="M0 0h24v48H0V0z"/><path fill="#2FEAFC" fill-opacity=".16" d="M28 0h20v20H28V0z"/><path fill="#61EFFD" d="M24 19.6c-5.9 0-10.6 4.7-10.6 10.6S18.1 40.8 24 40.8s10.6-4.7 10.6-10.6S29.9 19.6 24 19.6zm5.6 9.5l-2.3 2.2.5 3.1c.1.6-.5 1-1 .7L24 33.7l-2.8 1.5c-.5.3-1.1-.2-1-.7l.5-3.1-2.3-2.2c-.4-.4-.2-1.1.4-1.2l3.2-.5 1.4-2.9c.1-.3.4-.4.6-.4.2 0 .5.1.6.4l1.4 2.9 3.2.5c.6 0 .8.7.4 1.1z"/><path fill="#7C85E1" d="M22.1 17.9L17.9 11c-.3-.6-1-.9-1.7-.9H9.5c-.8 0-1.2.9-.8 1.5l6.7 9.6c1.8-1.8 4.1-2.9 6.7-3.3zM38.5 10h-6.7c-.7 0-1.3.4-1.7.9l-4.2 6.9c2.5.4 4.8 1.5 6.6 3.2l6.7-9.6c.5-.5 0-1.4-.7-1.4z"/></svg>